<svg width="23" height="22" viewBox="0 0 23 22" fill="none" xmlns="http://www.w3.org/2000/svg">
<path d="M21.0734 5.28765C20.3515 4.37306 19.0186 4 16.4731 4H7.23278C4.62897 4 3.27348 4.39713 2.55426 5.37083C1.85303 6.3202 1.85303 7.71903 1.85303 9.65503V13.345C1.85303 17.0957 2.68503 19 7.23278 19H16.4731C18.6806 19 19.9038 18.6709 20.6952 17.8637C21.5068 17.036 21.853 15.6847 21.853 13.345V9.65503C21.853 7.61335 21.7988 6.20628 21.0734 5.28765ZM14.6931 12.0095L10.4971 14.3465C10.4033 14.3988 10.3007 14.4247 10.1982 14.4247C10.0822 14.4247 9.96651 14.3914 9.864 14.3253C9.67097 14.2006 9.55309 13.9777 9.55309 13.7371V9.07803C9.55309 8.83794 9.67064 8.61518 9.86329 8.49045C10.056 8.36574 10.2957 8.35721 10.4956 8.4679L14.6916 10.7899C14.9051 10.908 15.0391 11.1429 15.0394 11.3991C15.0397 11.6556 14.9063 11.8908 14.6931 12.0095Z" fill="#C3C3C3"/>
</svg>
