<svg width="11" height="17" viewBox="0 0 11 17" fill="none" xmlns="http://www.w3.org/2000/svg">
<path d="M9.69803 0.00354004L7.49343 0C5.01673 0 3.41621 1.64212 3.41621 4.18372V6.1127H1.19967C1.00813 6.1127 0.853027 6.26798 0.853027 6.45952V9.2544C0.853027 9.446 1.00831 9.601 1.19967 9.601H3.41621V16.6534C3.41621 16.8449 3.57132 17 3.76285 17H6.65483C6.84633 17 7.00143 16.8447 7.00143 16.6534V9.601H9.59313C9.78463 9.601 9.93973 9.446 9.93973 9.2544L9.94083 6.45952C9.94083 6.36755 9.90423 6.27948 9.83933 6.21439C9.77443 6.14931 9.68593 6.1127 9.59403 6.1127H7.00143V4.47748C7.00143 3.69153 7.18873 3.29254 8.21253 3.29254L9.69763 3.29201C9.88903 3.29201 10.0441 3.13673 10.0441 2.94537V0.35018C10.0441 0.15899 9.88913 0.00389004 9.69803 0.00354004Z" fill="#C3C3C3"/>
</svg>
