<svg width="21" height="22" viewBox="0 0 21 22" fill="none" xmlns="http://www.w3.org/2000/svg">
<path d="M10.4512 21.1401C8.99519 21.1401 7.66988 20.8601 6.47518 20.3001C5.29918 19.7214 4.28189 18.9654 3.42319 18.0321C2.58319 17.0801 1.92988 15.9974 1.46318 14.7841C0.996584 13.5707 0.763184 12.3294 0.763184 11.0601C0.763184 9.73477 1.00588 8.46543 1.49118 7.2521C1.99518 6.03876 2.67659 4.96543 3.53519 4.0321C4.41259 3.09877 5.44858 2.36143 6.64318 1.8201C7.83788 1.2601 9.13519 0.980103 10.5352 0.980103C11.9726 0.980103 13.2792 1.27877 14.4552 1.8761C15.6499 2.45477 16.6672 3.2201 17.5072 4.1721C18.3472 5.1241 19.0006 6.20677 19.4672 7.4201C19.9339 8.63343 20.1672 9.86543 20.1672 11.1161C20.1672 12.4414 19.9246 13.7107 19.4392 14.9241C18.9539 16.1187 18.2819 17.1827 17.4232 18.1161C16.5646 19.0307 15.5379 19.7681 14.3432 20.3281C13.1486 20.8694 11.8512 21.1401 10.4512 21.1401ZM4.68318 11.0601C4.68318 11.9187 4.81389 12.7494 5.07519 13.5521C5.33659 14.3547 5.70988 15.0641 6.19518 15.6801C6.69918 16.2961 7.30588 16.7907 8.01518 17.1641C8.74318 17.5374 9.56459 17.7241 10.4792 17.7241C11.4126 17.7241 12.2339 17.5374 12.9432 17.1641C13.6712 16.7721 14.2779 16.2587 14.7632 15.6241C15.2672 14.9894 15.6406 14.2801 15.8832 13.4961C16.1446 12.6934 16.2752 11.8814 16.2752 11.0601C16.2752 10.2014 16.1352 9.37076 15.8552 8.5681C15.5939 7.76543 15.2112 7.0561 14.7072 6.4401C14.2219 5.8241 13.6152 5.33876 12.8872 4.9841C12.1779 4.61077 11.3752 4.4241 10.4792 4.4241C9.54589 4.4241 8.71518 4.6201 7.98718 5.0121C7.25918 5.38543 6.65258 5.88943 6.16718 6.5241C5.68188 7.1401 5.30858 7.84943 5.04718 8.6521C4.80458 9.4361 4.68318 10.2387 4.68318 11.0601Z" fill="#383838"/>
</svg>
