<svg width="14" height="15" viewBox="0 0 14 15" fill="none" xmlns="http://www.w3.org/2000/svg">
<path d="M13.7547 15.0001H10.0027V6.76809C10.0027 5.59209 9.79735 4.73339 9.38665 4.19209C8.97595 3.65071 8.40665 3.38005 7.67865 3.38005C7.30535 3.38005 6.92265 3.45472 6.53065 3.60405C6.13865 3.75338 5.76535 3.96805 5.41065 4.24809C5.07465 4.50939 4.76665 4.82669 4.48665 5.20009C4.20665 5.57339 4.00135 5.98409 3.87065 6.43209V15.0001H0.118652V0.32805H3.50665V3.04405C4.04795 2.11072 4.83195 1.38272 5.85865 0.86005C6.88535 0.33738 8.04265 0.0760498 9.33065 0.0760498C10.2454 0.0760498 10.992 0.24405 11.5707 0.58005C12.1494 0.91605 12.5974 1.35472 12.9147 1.89605C13.232 2.43738 13.4467 3.05338 13.5587 3.74405C13.6894 4.43469 13.7547 5.13469 13.7547 5.84409V15.0001Z" fill="#383838"/>
</svg>
