<svg width="10" height="21" viewBox="0 0 10 21" fill="none" xmlns="http://www.w3.org/2000/svg">
<path d="M9.95236 19.2442C9.44836 19.4682 8.83236 19.6922 8.10436 19.9162C7.37636 20.1402 6.61106 20.2522 5.80836 20.2522C5.28566 20.2522 4.79106 20.1868 4.32436 20.0562C3.87636 19.9255 3.47506 19.7202 3.12036 19.4402C2.78436 19.1415 2.51366 18.7682 2.30836 18.3202C2.10306 17.8535 2.00036 17.2935 2.00036 16.6402V8.21212H0.0683594V5.32812H2.00036V0.568115H5.75236V5.32812H8.83236V8.21212H5.75236V15.3802C5.75236 15.9028 5.88306 16.2762 6.14436 16.5002C6.42436 16.7055 6.76036 16.8082 7.15236 16.8082C7.54436 16.8082 7.92706 16.7428 8.30036 16.6122C8.67366 16.4815 8.97236 16.3695 9.19636 16.2762L9.95236 19.2442Z" fill="#383838"/>
</svg>
