<svg width="16" height="16" viewBox="0 0 16 16" fill="none" xmlns="http://www.w3.org/2000/svg">
<path d="M7.88083 15.2801C6.70483 15.2801 5.64083 15.0841 4.68883 14.6921C3.73683 14.2814 2.92483 13.7307 2.25283 13.0401C1.58083 12.3494 1.05813 11.5467 0.684833 10.6321C0.330133 9.71739 0.152832 8.75609 0.152832 7.74809C0.152832 6.70269 0.330133 5.72269 0.684833 4.80809C1.03943 3.87472 1.55283 3.06271 2.22483 2.37205C2.89683 1.66271 3.70883 1.10272 4.66083 0.69205C5.63143 0.28138 6.71413 0.0760498 7.90883 0.0760498C9.10343 0.0760498 10.1674 0.28138 11.1008 0.69205C12.0528 1.10272 12.8554 1.65338 13.5088 2.34405C14.1808 3.03472 14.6848 3.83738 15.0208 4.75209C15.3754 5.66669 15.5528 6.61869 15.5528 7.60809C15.5528 7.85069 15.5434 8.08409 15.5248 8.30809C15.5248 8.53209 15.5061 8.71869 15.4688 8.86809H4.12883C4.18483 9.44669 4.32483 9.96009 4.54883 10.4081C4.77283 10.8561 5.06213 11.2387 5.41683 11.5561C5.77143 11.8734 6.17283 12.1161 6.62083 12.2841C7.06883 12.4521 7.53543 12.5361 8.02083 12.5361C8.76743 12.5361 9.46743 12.3587 10.1208 12.0041C10.7928 11.6307 11.2501 11.1454 11.4928 10.5481L14.7128 11.4441C14.1714 12.5641 13.3034 13.4881 12.1088 14.2161C10.9328 14.9254 9.52343 15.2801 7.88083 15.2801ZM11.6888 6.43209C11.5954 5.33069 11.1848 4.45339 10.4568 3.80005C9.74743 3.12805 8.87943 2.79205 7.85283 2.79205C7.34883 2.79205 6.87283 2.88538 6.42483 3.07205C5.99543 3.24005 5.61283 3.48272 5.27683 3.80005C4.94083 4.11739 4.66083 4.50009 4.43683 4.94809C4.23143 5.39609 4.11013 5.89069 4.07283 6.43209H11.6888Z" fill="#383838"/>
</svg>
